<?xml version="1.0" encoding="utf-8"?>
<!-- Generator: Adobe Illustrator 18.0.0, SVG Export Plug-In . SVG Version: 6.00 Build 0)  -->
<!DOCTYPE svg PUBLIC "-//W3C//DTD SVG 1.1//EN" "http://www.w3.org/Graphics/SVG/1.1/DTD/svg11.dtd">
<svg version="1.1" id="Layer_1" xmlns="http://www.w3.org/2000/svg" xmlns:xlink="http://www.w3.org/1999/xlink" x="0px" y="0px"
	 viewBox="0 0 540 570" style="enable-background:new 0 0 540 570;" xml:space="preserve">
<rect x="0.1" style="display:none;fill:#4C494A;" width="540" height="570"/>
<g id="Hand">
	<path style="fill:#E6F4F0;" d="M54.7,351.8h113.8c5.5,0,10-4.5,10-10V256c0-5.5-4.5-10-10-10H54.7c-5.5,0-10,4.5-10,10v85.8
		C44.7,347.4,49.2,351.8,54.7,351.8z"/>
	<path style="fill:#55C3CD;" d="M74,257H57.7c-1,0-1.8,0.8-1.8,1.9l2.1,75.7c0,2.3,0.7,4.5,2.1,6.1c1.5,1.9,3.6,2.9,5.7,2.9
		s4.3-1.1,5.7-2.9c1.3-1.7,2-3.9,2.1-6.1l2.1-75.7C75.8,257.9,75,257,74,257z"/>
	<path id="Pinky3_x5F_R_x5F_CTL" style="fill:#EED453;" d="M65.9,340.7c2.7,0,4.9-2.8,4.9-6.3l0.5-9.6H60.4l0.5,9.6h0
		C60.9,337.9,63.1,340.7,65.9,340.7z"/>
	<polygon id="Pinky2_x5F_R_x5F_CTL" style="fill:#EED453;" points="71.3,321.9 60.4,321.9 59.9,308.5 71.9,308.5 	"/>
	<polygon id="Pinky1_x5F_R_x5F_CTL" style="fill:#EED453;" points="71.9,305.7 59.9,305.7 59.3,292.4 72.4,292.4 	"/>
	<polygon id="Pinky0_x5F_R_x5F_CTL" style="fill:#EED453;" points="72.4,289.5 59.3,289.5 58.8,276.2 73,276.2 	"/>
	<path style="fill:#55C3CD;" d="M96.3,257H80.1c-1,0-1.8,0.8-1.8,1.9l2.1,75.7c0,2.3,0.7,4.5,2.1,6.1c1.5,1.9,3.6,2.9,5.7,2.9
		c2.2,0,4.3-1.1,5.7-2.9c1.3-1.7,2-3.9,2.1-6.1l2.1-75.7C98.2,257.9,97.3,257,96.3,257z"/>
	<path id="Ring3_x5F_R_x5F_CTL" style="fill:#EED453;" d="M88.2,340.7c2.7,0,4.9-2.8,4.9-6.3l0.5-9.6H82.7l0.5,9.6h0
		C83.3,337.9,85.5,340.7,88.2,340.7z"/>
	<polygon id="Ring2_x5F_R_x5F_CTL" style="fill:#EED453;" points="93.7,321.9 82.7,321.9 82.2,308.5 94.2,308.5 	"/>
	<polygon id="Ring1_x5F_R_x5F_CTL" style="fill:#EED453;" points="94.2,305.7 82.2,305.7 81.7,292.4 94.8,292.4 	"/>
	<polygon id="Ring0_x5F_R_x5F_CTL" style="fill:#EED453;" points="94.8,289.5 81.7,289.5 81.1,276.2 95.3,276.2 	"/>
	<path style="fill:#55C3CD;" d="M118.7,257h-16.3c-1,0-1.8,0.8-1.8,1.9l2.1,75.7c0,2.3,0.7,4.5,2.1,6.1c1.5,1.9,3.6,2.9,5.7,2.9
		s4.3-1.1,5.7-2.9c1.3-1.7,2-3.9,2.1-6.1l2.1-75.7C120.5,257.9,119.7,257,118.7,257z"/>
	<path id="Middle3_x5F_R_x5F_CTL" style="fill:#EED453;" d="M110.5,340.7c2.7,0,4.9-2.8,4.9-6.3l0.5-9.6h-10.9l0.5,9.6h0
		C105.6,337.9,107.8,340.7,110.5,340.7z"/>
	<polygon id="Middle2_x5F_R_x5F_CTL" style="fill:#EED453;" points="116,321.9 105.1,321.9 104.5,308.5 116.6,308.5 	"/>
	<polygon id="Middle1_x5F_R_x5F_CTL" style="fill:#EED453;" points="116.6,305.7 104.5,305.7 104,292.4 117.1,292.4 	"/>
	<polygon id="Middle0_x5F_R_x5F_CTL" style="fill:#EED453;" points="117.1,289.5 104,289.5 103.4,276.2 117.6,276.2 	"/>
	<path style="fill:#55C3CD;" d="M141,257h-16.3c-1,0-1.8,0.8-1.8,1.9l2.1,75.7c0,2.3,0.7,4.5,2.1,6.1c1.5,1.9,3.6,2.9,5.7,2.9
		c2.2,0,4.3-1.1,5.7-2.9c1.3-1.7,2-3.9,2.1-6.1l2.1-75.7C142.8,257.9,142,257,141,257z"/>
	<path id="Index3_x5F_R_x5F_CTL" style="fill:#EED453;" d="M132.9,340.7c2.7,0,4.9-2.8,4.9-6.3l0.5-9.6h-10.9l0.5,9.6h0
		C128,337.9,130.2,340.7,132.9,340.7z"/>
	<polygon id="Index2_x5F_R_x5F_CTL" style="fill:#EED453;" points="138.3,321.9 127.4,321.9 126.9,308.5 138.9,308.5 	"/>
	<polygon id="Index1_x5F_R_x5F_CTL" style="fill:#EED453;" points="138.9,305.7 126.9,305.7 126.3,292.4 139.4,292.4 	"/>
	<polygon id="Index0_x5F_R_x5F_CTL" style="fill:#EED453;" points="139.4,289.5 126.3,289.5 125.8,276.2 140,276.2 	"/>
	<path style="fill:#55C3CD;" d="M149.9,257c-1,0-1.8,0.8-1.8,2.2l1.9,60.7c0,2,0.8,4.3,2.1,6c1.5,1.9,3.7,3,5.9,3
		c2.3,0,4.4-1.1,5.9-3c1.4-1.7,2.1-4,2.1-6l1.9-60.7c0-1.4-0.8-2.2-1.8-2.2H149.9z"/>
	<path id="Thumb2_x5F_R_x5F_CTL" style="fill:#EED453;" d="M158,326.1c2.9,0,5.2-3,5.2-6.6l0.6-10.2h-11.5l0.6,10.2h0
		C152.9,323.1,155.2,326.1,158,326.1z"/>
	<polygon id="Thumb1_x5F_R_x5F_CTL" style="fill:#EED453;" points="163.8,306.5 152.3,306.5 151.7,292.4 164.4,292.4 	"/>
	<polygon id="Thumb0_x5F_R_x5F_CTL" style="fill:#EED453;" points="164.4,290 151.7,290 151.1,276.2 165,276.2 	"/>
	<path style="fill:#E6F4F0;" d="M373.3,350.6h110.6c5.5,0,10-4.5,10-10v-83.4c0-5.5-4.5-10-10-10H373.3c-5.5,0-10,4.5-10,10v83.4
		C363.3,346.1,367.8,350.6,373.3,350.6z"/>
	<path style="fill:#97D0C9;" d="M467.7,256.7h16.4c1,0,1.8,0.8,1.8,1.9l-2.2,75.9c0,2.3-0.8,4.5-2.1,6.2c-1.5,1.9-3.6,2.9-5.8,2.9
		c-2.2,0-4.3-1.1-5.8-2.9c-1.3-1.7-2.1-3.9-2.1-6.2l-2.2-75.9C465.8,257.5,466.6,256.7,467.7,256.7z"/>
	<path id="Pinky3_x5F_L_x5F_CTL" style="fill:#FBAF3F;" d="M475.9,340.6c-2.7,0-5-2.8-5-6.3l-0.6-9.6h11l-0.6,9.6h0
		C480.9,337.8,478.6,340.6,475.9,340.6z"/>
	<polygon id="Pinky2_x5F_L_x5F_CTL" style="fill:#FBAF3F;" points="470.4,321.7 481.4,321.7 482,308.3 469.8,308.3 	"/>
	<polygon id="Pinky1_x5F_L_x5F_CTL" style="fill:#FBAF3F;" points="469.8,305.5 482,305.5 482.5,292.1 469.3,292.1 	"/>
	<polygon id="Pinky0_x5F_L_x5F_CTL" style="fill:#FBAF3F;" points="469.3,289.3 482.5,289.3 483.1,275.9 468.7,275.9 	"/>
	<path style="fill:#97D0C9;" d="M445.1,256.7h16.4c1,0,1.8,0.8,1.8,1.9l-2.2,75.9c0,2.3-0.8,4.5-2.1,6.2c-1.5,1.9-3.6,2.9-5.8,2.9
		s-4.3-1.1-5.8-2.9c-1.3-1.7-2.1-3.9-2.1-6.2l-2.2-75.9C443.2,257.5,444.1,256.7,445.1,256.7z"/>
	<path id="Ring3_x5F_L_x5F_CTL" style="fill:#FBAF3F;" d="M453.3,340.6c-2.7,0-5-2.8-5-6.3l-0.6-9.6h11l-0.6,9.6l0,0
		C458.3,337.8,456,340.6,453.3,340.6z"/>
	<polygon id="Ring2_x5F_L_x5F_CTL" style="fill:#FBAF3F;" points="447.8,321.7 458.8,321.7 459.4,308.3 447.2,308.3 	"/>
	<polygon id="Ring1_x5F_L_x5F_CTL" style="fill:#FBAF3F;" points="447.2,305.5 459.4,305.5 459.9,292.1 446.7,292.1 	"/>
	<polygon id="Ring0_x5F_L_x5F_CTL" style="fill:#FBAF3F;" points="446.7,289.3 459.9,289.3 460.5,275.9 446.1,275.9 	"/>
	<path style="fill:#97D0C9;" d="M422.5,256.7h16.4c1,0,1.8,0.8,1.8,1.9l-2.2,75.9c0,2.3-0.8,4.5-2.1,6.2c-1.5,1.9-3.6,2.9-5.8,2.9
		c-2.2,0-4.3-1.1-5.8-2.9c-1.3-1.7-2.1-3.9-2.1-6.2l-2.2-75.9C420.7,257.5,421.5,256.7,422.5,256.7z"/>
	<path id="Middle3_x5F_L_x5F_CTL" style="fill:#FBAF3F;" d="M430.7,340.6c-2.7,0-5-2.8-5-6.3l-0.6-9.6h11l-0.6,9.6h0
		C435.7,337.8,433.5,340.6,430.7,340.6z"/>
	<polygon id="Middle2_x5F_L_x5F_CTL" style="fill:#FBAF3F;" points="425.2,321.7 436.2,321.7 436.8,308.3 424.7,308.3 	"/>
	<polygon id="Middle1_x5F_L_x5F_CTL" style="fill:#FBAF3F;" points="424.7,305.5 436.8,305.5 437.3,292.1 424.1,292.1 	"/>
	<polygon id="Middle0_x5F_L_x5F_CTL" style="fill:#FBAF3F;" points="424.1,289.3 437.3,289.3 437.9,275.9 423.5,275.9 	"/>
	<path style="fill:#97D0C9;" d="M399.9,256.7h16.4c1,0,1.8,0.8,1.8,1.9l-2.2,75.9c0,2.3-0.8,4.5-2.1,6.2c-1.5,1.9-3.6,2.9-5.8,2.9
		s-4.3-1.1-5.8-2.9c-1.3-1.7-2.1-3.9-2.1-6.2l-2.2-75.9C398.1,257.5,398.9,256.7,399.9,256.7z"/>
	<path id="Index3_x5F_L_x5F_CTL" style="fill:#FBAF3F;" d="M408.1,340.6c-2.7,0-5-2.8-5-6.3l-0.6-9.6h11l-0.6,9.6l0,0
		C413.1,337.8,410.9,340.6,408.1,340.6z"/>
	<polygon id="Index2_x5F_L_x5F_CTL" style="fill:#FBAF3F;" points="402.6,321.7 413.7,321.7 414.2,308.3 402.1,308.3 	"/>
	<polygon id="Index1_x5F_L_x5F_CTL" style="fill:#FBAF3F;" points="402.1,305.5 414.2,305.5 414.8,292.1 401.5,292.1 	"/>
	<polygon id="Index0_x5F_L_x5F_CTL" style="fill:#FBAF3F;" points="401.5,289.3 414.8,289.3 415.3,275.9 401,275.9 	"/>
	<path style="fill:#97D0C9;" d="M390.9,256.7c1,0,1.9,0.8,1.8,2.2l-1.9,60.8c0,2-0.8,4.3-2.2,6c-1.5,1.9-3.7,3-6,3s-4.5-1.1-6-3
		c-1.4-1.7-2.1-4-2.2-6l-1.9-60.8c0-1.4,0.8-2.2,1.8-2.2H390.9z"/>
	<path id="Thumb2_x5F_L_x5F_CTL" style="fill:#FBAF3F;" d="M382.7,325.9c-2.9,0-5.2-3-5.2-6.6l-0.6-10.2h11.7l-0.6,10.2h0
		C388,322.9,385.6,325.9,382.7,325.9z"/>
	<polygon id="Thumb1_x5F_L_x5F_CTL" style="fill:#FBAF3F;" points="376.9,306.3 388.5,306.3 389.1,292.1 376.3,292.1 	"/>
	<polygon id="Thumb0_x5F_L_x5F_CTL" style="fill:#FBAF3F;" points="376.3,289.7 389.1,289.7 389.7,276 375.7,276 	"/>
</g>
<g id="Body">
	<path style="fill:#E6F4F0;" d="M313.2,269.5c5.1-12,15.4-33.4,15.4-50.2c0-35.2-23.4-33.4-57.9-33.4c-34.5,0-57.9-1.8-57.9,33.4
		c0,16.9,10.2,39.3,15.5,51.6c0.1,0.2,0.2,0.3,0.3,0.4c-5.8,13.6-7.6,29.7-7.6,43c0,29.4,20.7,38.8,49.9,38.8s51.5-9.4,51.5-38.8
		c0-13.8-2.6-30.5-9.4-44.5C313.1,269.7,313.1,269.6,313.2,269.5z"/>
	<path id="Hip_x5F_CTL" style="fill:#29A4AA;" d="M286.3,321.6c4.3,0,5.8,6.4,2.2,9.4c-5.3,4.5-11.9,5.1-17.8,5.1
		s-12.5-0.6-17.8-5.1c-3.6-3.1-2-9.4,2.2-9.4l4.2,0.2c7.4,0.4,14.9,0.4,22.3,0L286.3,321.6z"/>
	<path id="ChestMove_x5F_CTL" style="fill:#29A4AA;" d="M286.3,214.2c4.3,0,5.8,6.4,2.2,9.4c-5.3,4.5-11.9,5.1-17.8,5.1
		s-12.5-0.6-17.8-5.1c-3.6-3.1-2-9.4,2.2-9.4l4.2,0.2c7.4,0.4,14.9,0.4,22.3,0L286.3,214.2z"/>
	<path id="Chest_x5F_CTL" style="fill:#FF7258;" d="M288.5,229.4c4.8,0,6.7,7.3,2.6,10.7c-6,5.1-13.5,5.9-20.3,5.9
		s-14.3-0.7-20.3-5.9c-4.1-3.5-2.3-10.7,2.6-10.7l4.7,0.3c8.5,0.5,17,0.5,25.4,0L288.5,229.4z"/>
	<path id="Waist_x5F_CTL" style="fill:#29A4AA;" d="M286.3,247c4.3,0,5.8,6.4,2.2,9.4c-5.3,4.5-11.9,5.1-17.8,5.1
		s-12.5-0.6-17.8-5.1c-3.6-3.1-2-9.4,2.2-9.4l4.2,0.2c7.4,0.4,14.9,0.4,22.3,0L286.3,247z"/>
	<path id="TorsoRotate_x5F_CTL" style="fill:#29A4AA;" d="M286.3,288.8c4.3,0,5.8,6.4,2.2,9.4c-5.3,4.5-11.9,5.1-17.8,5.1
		s-12.5-0.6-17.8-5.1c-3.6-3.1-2-9.4,2.2-9.4l4.2,0.2c7.4,0.4,14.9,0.4,22.3,0L286.3,288.8z"/>
	<path id="Root_x5F_CTL" style="fill:#FF7258;" d="M307.4,309.4c0,5.7-0.6,11.9-4.9,16.9c-2.9,3.4-9,1.9-9-2.1l0.3-4.5
		c0.1-1.1,0.1-2.3,0.2-3.4c-7.3,3.6-15.8,4.1-23.6,4.1c-7.5,0-15.8-0.5-22.9-3.8c0,1,0.1,2,0.2,3.1l0.3,4.5c0,4-6.1,5.5-9,2.1
		c-4.3-5-4.9-11.3-4.9-16.9c0-5.6,0.6-11.9,4.9-16.9c2.9-3.4,9-1.9,9,2.1l-0.2,4c-0.1,1.8-0.2,3.6-0.2,5.3l5.9,0.3
		c11.1,0.5,22.3,0.5,33.4,0l7-0.3c0.1,0,0.2,0,0.3,0c-0.1-1.8-0.1-3.5-0.2-5.3l-0.2-4c0-4,6-5.5,9-2.1
		C306.8,297.5,307.4,303.8,307.4,309.4z"/>
	<path id="Collar_x5F_R_x5F_CTL" style="fill:#55C3CD;" d="M236.6,220.6h-0.9c-5.7,0-10.3-4.6-10.3-10.3v-0.9
		c0-5.7,4.6-10.3,10.3-10.3h0.9c5.7,0,10.3,4.6,10.3,10.3v0.9C246.8,216,242.2,220.6,236.6,220.6z"/>
	<path id="Collar_x5F_L_x5F_CTL" style="fill:#97D0C9;" d="M306.2,220.6h-0.9c-5.7,0-10.3-4.6-10.3-10.3v-0.9
		c0-5.7,4.6-10.3,10.3-10.3h0.9c5.7,0,10.3,4.6,10.3,10.3v0.9C316.5,216,311.9,220.6,306.2,220.6z"/>
</g>
<g id="Head">
	<circle id="Ear_x5F_R_x5F_CTL" style="fill:#55C3CD;" cx="221.7" cy="91.5" r="13.3"/>
	<circle id="Ear_x5F_L_x5F_CTL" style="fill:#97D0C9;" cx="319.6" cy="91.5" r="13.3"/>
	<path id="Neck_x5F_CTL" style="fill:#55C3CD;" d="M282.4,182.2h-23.7c-2.8,0-5-2.2-5-5V175c0-2.8,2.2-5,5-5h23.7c2.8,0,5,2.2,5,5
		v2.2C287.4,180,285.1,182.2,282.4,182.2z"/>
	<path id="NeckMiddle_x5F_CTL" style="fill:#55C3CD;" d="M282.4,166.8h-23.7c-2.8,0-5-2.2-5-5v-2.2c0-2.8,2.2-5,5-5h23.7
		c2.8,0,5,2.2,5,5v2.2C287.4,164.6,285.1,166.8,282.4,166.8z"/>
	<path id="Head_x5F_CTL" style="fill:#F1F1F1;" d="M320.1,85.8c0-36.7-22.3-56.2-49.8-56.2S220.5,49,220.5,85.8s22.3,66.5,49.8,66.5
		S320.1,122.5,320.1,85.8z"/>
	<path id="Eye_x5F_CTL" style="fill:#29A4AA;" d="M315,91.5c0,8.4-6.8,15.1-15.1,15.1c-2.7,0-5.3-0.7-7.4-2h-0.1
		c-6.5-3.7-14-5.8-22.1-5.8s-15.6,2.1-22.1,5.8h0c-2.2,1.3-4.7,2-7.5,2c-8.4,0-15.1-6.8-15.1-15.1s6.8-15.1,15.1-15.1
		c2.7,0,5.3,0.7,7.5,2h0c6.5,3.7,14,5.8,22.1,5.8s15.6-2.1,22.1-5.8h0.1c2.2-1.3,4.7-2,7.4-2C308.2,76.3,315,83.1,315,91.5z"/>
	<circle id="EyeAim_x5F_L_x5F_CTL" style="fill:#FF7258;" cx="299.5" cy="91.5" r="10.5"/>
	<circle id="EyeAim_x5F_R_x5F_CTL" style="fill:#FBAF3F;" cx="241.1" cy="91.5" r="10.5"/>
</g>
<g id="Leg">
	<path style="fill:#E6F4F0;" d="M210.4,365.2v128.1l-36.7,11.3c-9.3,2.6-15.7,11.1-15.7,20.7v2c0,7.1,5.8,12.9,12.9,12.9h91.7
		c1.6,0,3-1.3,3-3V365.2c0-1.7-1.3-3-3-3h-49.1C211.7,362.2,210.4,363.5,210.4,365.2z"/>
	<path id="Leg_x5F_R_x5F_FK0_x5F_CTL" style="fill:#55C3CD;" d="M222.5,425.8v-51.2c0-0.6,0.4-1,1-1h28.9c0.6,0,1,0.4,1,1v51.2
		c0,0.6-0.4,1-1,1h-28.9C222.9,426.8,222.5,426.4,222.5,425.8z"/>
	<path id="Leg_x5F_R_x5F_FK1_x5F_CTL" style="fill:#55C3CD;" d="M222.5,493v-58.4c0-0.6,0.4-1,1-1h28.9c0.6,0,1,0.4,1,1v49.5
		c0,0.4-0.3,0.8-0.7,1l-28.9,8.9C223.1,494.2,222.5,493.7,222.5,493z"/>
	<path id="Leg_x5F_R_x5F_FK2_x5F_CTL" style="fill:#55C3CD;" d="M252.3,529.2h-52.5v-18.9l52.2-17.8c0.6-0.2,1.2,0.2,1.2,0.9v34.8
		C253.2,528.7,252.8,529.2,252.3,529.2z"/>
	<path id="Leg_x5F_R_x5F_FK3_x5F_CTL" style="fill:#55C3CD;" d="M193,529.2h-20.2c-0.8,0-1.5-0.7-1.5-1.5v-2c0-4.4,2.9-8.2,7.1-9.4
		l14.5-4V529.2z"/>
	<circle id="Leg_x5F_R_x5F_Foot_x5F_IK_x5F_CTL" style="fill:#EED453;" cx="196.9" cy="520.1" r="10.7"/>
	<circle id="Leg_x5F_R_x5F_PoleV_x5F_CTL" style="fill:#EED453;" cx="237.9" cy="430.3" r="10.7"/>
	<circle id="Leg_x5F_R_x5F_IK_x5F_CTL" style="fill:#EED453;" cx="237.9" cy="493.6" r="10.7"/>
	<circle id="Leg_x5F_R_x5F_Switch_x5F_CTL" style="fill:#FF7258;" cx="138" cy="525.6" r="8.9"/>
	<path id="Leg_x5F_R_x5F_UpperFlex_x5F_CTL" style="fill:#EED453;" d="M191.6,427c-3.6,0-6.6-2.9-6.6-6.6v-40.2
		c0-3.6,2.9-6.6,6.6-6.6c3.6,0,6.6,2.9,6.6,6.6v40.2C198.2,424.1,195.2,427,191.6,427z"/>
	<path id="Leg_x5F_R_x5F_LowerFlex_x5F_CTL" style="fill:#EED453;" d="M191.6,486.7c-3.6,0-6.6-2.9-6.6-6.6v-39
		c0-3.6,2.9-6.6,6.6-6.6c3.6,0,6.6,2.9,6.6,6.6v39C198.2,483.8,195.2,486.7,191.6,486.7z"/>
	<path id="Leg_x5F_L_x5F_UpperFlex_x5F_CTL" style="fill:#FBAF3F;" d="M350.8,427c-3.6,0-6.6-2.9-6.6-6.6v-40.2
		c0-3.6,2.9-6.6,6.6-6.6c3.6,0,6.6,2.9,6.6,6.6v40.2C357.4,424.1,354.4,427,350.8,427z"/>
	<path id="Leg_x5F_L_x5F_LowerFlex_x5F_CTL" style="fill:#FBAF3F;" d="M350.8,486.7c-3.6,0-6.6-2.9-6.6-6.6v-39
		c0-3.6,2.9-6.6,6.6-6.6c3.6,0,6.6,2.9,6.6,6.6v39C357.4,483.8,354.4,486.7,350.8,486.7z"/>
	<path style="fill:#E6F4F0;" d="M331.2,365.2v128.1l36.7,11.3c9.3,2.6,15.7,11.1,15.7,20.7v2c0,7.1-5.8,12.9-12.9,12.9H279
		c-1.6,0-3-1.3-3-3V365.2c0-1.7,1.3-3,3-3h49.1C329.8,362.2,331.2,363.5,331.2,365.2z"/>
	<path id="Leg_x5F_L_x5F_FK0_x5F_CTL" style="fill:#97D0C9;" d="M319.1,425.8v-51.2c0-0.6-0.4-1-1-1h-28.9c-0.6,0-1,0.4-1,1v51.2
		c0,0.6,0.4,1,1,1h28.9C318.7,426.8,319.1,426.4,319.1,425.8z"/>
	<path id="Leg_x5F_L_x5F_FK1_x5F_CTL" style="fill:#97D0C9;" d="M319.1,493v-58.4c0-0.6-0.4-1-1-1h-28.9c-0.6,0-1,0.4-1,1v49.5
		c0,0.4,0.3,0.8,0.7,1l28.9,8.9C318.4,494.2,319.1,493.7,319.1,493z"/>
	<path id="Leg_x5F_L_x5F_FK2_x5F_CTL" style="fill:#97D0C9;" d="M289.3,529.2h52.5v-18.9l-52.2-17.8c-0.6-0.2-1.2,0.2-1.2,0.9v34.8
		C288.3,528.7,288.8,529.2,289.3,529.2z"/>
	<path id="Leg_x5F_L_x5F_FK3_x5F_CTL" style="fill:#97D0C9;" d="M348.6,529.2h20.2c0.8,0,1.5-0.7,1.5-1.5v-2c0-4.4-2.9-8.2-7.1-9.4
		l-14.5-4V529.2z"/>
	<circle id="Leg_x5F_L_x5F_Foot_x5F_IK_x5F_CTL" style="fill:#FBAF3F;" cx="345.5" cy="520.1" r="10.7"/>
	<circle id="Leg_x5F_L_x5F_PoleV_x5F_CTL" style="fill:#FBAF3F;" cx="303.6" cy="430.3" r="10.7"/>
	<circle id="Leg_x5F_L_x5F_IK_x5F_CTL" style="fill:#FBAF3F;" cx="303.6" cy="493.6" r="10.7"/>
	<circle id="Leg_x5F_L_x5F_Switch_x5F_CTL" style="fill:#FF7258;" cx="403.5" cy="525.6" r="8.9"/>
</g>
<g id="Arm">
	<path style="fill:#E6F4F0;" d="M204.1,208.8c0-14.7,5.3-26.6-10.8-26.6c-8.8,0-16.7,2.1-22.2,7.1H66.6c-11.2,0-20.2,9-20.2,20.2v0
		c0,11.2,9,20.2,20.2,20.2h107c5.3,3.8,12.3,5.7,19.8,5.7C209.5,235.4,204.1,223.5,204.1,208.8z"/>
	<path id="Arm_x5F_R_x5F_FK2_x5F_CTL" style="fill:#55C3CD;" d="M67,196.5h14c0.8,0,1.4,0.6,1.4,1.4v23.2c0,0.8-0.6,1.4-1.4,1.4H67
		c-6.9,0-12.4-5.6-12.4-12.4v-1.1C54.6,202.1,60.2,196.5,67,196.5z"/>
	<path id="Arm_x5F_R_x5F_FK1_x5F_CTL" style="fill:#55C3CD;" d="M87.8,196.5h35.4c0.6,0,1,0.4,1,1v24c0,0.6-0.4,1-1,1H87.8
		c-0.6,0-1-0.4-1-1v-24C86.8,196.9,87.2,196.5,87.8,196.5z"/>
	<path id="Arm_x5F_R_x5F_FK0_x5F_CTL" style="fill:#55C3CD;" d="M130.7,196.5h33.4c1.1,0,2,0.9,2,2v22c0,1.1-0.9,2-2,2h-33.4
		c-1.1,0-2-0.9-2-2v-22C128.7,197.4,129.6,196.5,130.7,196.5z"/>
	<circle id="Arm_x5F_R_x5F_PoleV_x5F_CTL" style="fill:#EED453;" cx="126.7" cy="209.5" r="9.9"/>
	<circle id="Arm_x5F_R_x5F_IK_x5F_CTL" style="fill:#EED453;" cx="85.1" cy="209.5" r="9.9"/>
	<circle id="Arm_x5F_R_x5F_Switch_x5F_CTL" style="fill:#FF7258;" cx="30.5" cy="209.6" r="9"/>
	<path id="Arm_x5F_R_x5F_LowerFlex_x5F_CTL" style="fill:#EED453;" d="M117.8,181.7H94.5c-3.6,0-6.6-2.9-6.6-6.6
		c0-3.6,2.9-6.6,6.6-6.6h23.3c3.6,0,6.6,2.9,6.6,6.6C124.3,178.8,121.4,181.7,117.8,181.7z"/>
	<path id="Arm_x5F_R_x5F_UpperFlex_x5F_CTL" style="fill:#EED453;" d="M159.8,181.7h-24c-3.6,0-6.6-2.9-6.6-6.6
		c0-3.6,2.9-6.6,6.6-6.6h24c3.6,0,6.6,2.9,6.6,6.6C166.3,178.8,163.4,181.7,159.8,181.7z"/>
	<path id="Shoulder_x5F_R_x5F_CTL" style="fill:#55C3CD;" d="M196,208.8c0,9.9,3.3,18-6.6,18c-9.9,0-18-8-18-17.9
		c0-9.9,8-18,17.9-18C199.3,190.9,196,198.9,196,208.8z"/>
	<path style="fill:#E6F4F0;" d="M474.6,189.4H370.2c-5.5-5-13.5-7.1-22.2-7.1c-16.2,0-10.8,11.9-10.8,26.6
		c0,14.7-5.4,26.6,10.7,26.6c7.5,0,14.5-1.9,19.8-5.7h107c11.2,0,20.2-9,20.2-20.2v0C494.8,198.4,485.8,189.4,474.6,189.4z"/>
	<path id="Arm_x5F_L_x5F_FK2_x5F_CTL" style="fill:#97D0C9;" d="M474.1,196.5h-14c-0.8,0-1.4,0.6-1.4,1.4v23.2
		c0,0.8,0.6,1.4,1.4,1.4h14c6.9,0,12.4-5.6,12.4-12.4v-1.1C486.6,202.1,481,196.5,474.1,196.5z"/>
	<path id="Arm_x5F_L_x5F_FK1_x5F_CTL" style="fill:#97D0C9;" d="M453.4,196.5H418c-0.6,0-1,0.4-1,1v24c0,0.6,0.4,1,1,1h35.4
		c0.6,0,1-0.4,1-1v-24C454.4,196.9,454,196.5,453.4,196.5z"/>
	<path id="Arm_x5F_L_x5F_FK0_x5F_CTL" style="fill:#97D0C9;" d="M411.4,196.5H376c-0.6,0-1,0.4-1,1v24c0,0.6,0.4,1,1,1h35.4
		c0.6,0,1-0.4,1-1v-24C412.4,196.9,412,196.5,411.4,196.5z"/>
	<circle id="Arm_x5F_L_x5F_PoleV_x5F_CTL" style="fill:#FBAF3F;" cx="414.5" cy="209.5" r="9.9"/>
	<circle id="Arm_x5F_L_x5F_IK_x5F_CTL" style="fill:#FBAF3F;" cx="456.1" cy="209.5" r="9.9"/>
	<circle id="Arm_x5F_L_x5F_Switch_x5F_CTL" style="fill:#FF7258;" cx="510.7" cy="209.6" r="9"/>
	<path id="Arm_x5F_L_x5F_LowerFlex_x5F_CTL" style="fill:#FBAF3F;" d="M446.7,181.7h-23.3c-3.6,0-6.6-2.9-6.6-6.6
		c0-3.6,2.9-6.6,6.6-6.6h23.3c3.6,0,6.6,2.9,6.6,6.6C453.3,178.8,450.3,181.7,446.7,181.7z"/>
	<path id="Arm_x5F_L_x5F_UpperFlex_x5F_CTL" style="fill:#FBAF3F;" d="M405.4,181.7h-24c-3.6,0-6.6-2.9-6.6-6.6
		c0-3.6,2.9-6.6,6.6-6.6h24c3.6,0,6.6,2.9,6.6,6.6C412,178.8,409.1,181.7,405.4,181.7z"/>
	<path id="Shoulder_x5F_L_x5F_CTL" style="fill:#97D0C9;" d="M345.2,208.8c0,9.9-3.3,18,6.6,18c9.9,0,18-8,18-17.9
		c0-9.9-8-18-17.9-18C341.9,190.9,345.2,198.9,345.2,208.8z"/>
</g>
</svg>
