<?xml version="1.0" encoding="utf-8"?>
<!-- Generator: Adobe Illustrator 18.0.0, SVG Export Plug-In . SVG Version: 6.00 Build 0)  -->
<!DOCTYPE svg PUBLIC "-//W3C//DTD SVG 1.1//EN" "http://www.w3.org/Graphics/SVG/1.1/DTD/svg11.dtd">
<svg version="1.1" id="Layer_1" xmlns="http://www.w3.org/2000/svg" xmlns:xlink="http://www.w3.org/1999/xlink" x="0px" y="0px"
	 viewBox="0 0 540 570" style="enable-background:new 0 0 540 570;" xml:space="preserve">
<rect x="0.1" style="display:none;fill:#4C494A;" width="540" height="570"/>
<g id="Mouth">
	<path style="fill:#E6F4F0;" d="M337.1,514.6c80.2-47,99.6-147.6,103.8-196.8c1.8-21.6-13.9-24.5-36-28.1l-60.8-9.3
		c-9.5-1.5-15.2-4.8-22.4-10.9c-30.8-25.7-67.5-23.8-67.5-23.8s-35.6,0.6-63.6,24.6c-7.1,6.1-15.1,10.2-24.5,11.6l-60.5,7.7
		c-22.4,3.5-38,6.9-35.9,28.6c4.8,49.3,25.1,149.6,105.6,196.4C225.1,543.7,287.4,543.7,337.1,514.6z"/>
	<path id="lipPosition_x5F_CTL" style="fill:#FF7258;" d="M392.4,396.1c-2.7-2.2-6-3.9-10.3-5.4c-5.9-2.1-13.9-3.8-24.4-5.2
		c-16.7-2.2-40.3-3.5-70.3-4.1c-0.2,0-0.5,0-0.7,0c-7.6,0-14.5,2.3-20.5,4.4c-4.2,1.5-8.2,2.8-11.1,2.8c-2.3,0-6.1-1.4-9.7-2.8
		c-5.8-2.1-12.3-4.6-19.8-4.6c-0.2,0-0.4,0-0.5,0c-30.7,0.5-53.8,1.8-70.8,4c-10.6,1.4-18.7,3.1-24.6,5.2c-4.3,1.5-7.7,3.4-10.4,5.6
		c-4.9,4-7.6,9.4-7.6,15.3c0,15.5,14,33.2,36.5,46.3c18.7,10.8,52.6,23.7,107.7,23.7c24.3,0,46.3-2.3,65.5-6.8
		c16.9-4,31.7-9.7,44-17c25.5-15.2,34.6-33.8,34.6-46.2C400,405.5,397.3,400,392.4,396.1z"/>
	<path id="jawLow_x5F_CTL" style="fill:#97D0C9;" d="M288,525.1c8.2,0,11.3,10.6,4.3,14.9c-10.3,6.4-23,7.8-34.5,7.8
		s-24.2-1.5-34.5-7.8c-7-4.3-3.9-14.9,4.3-14.9l17.7,0.8c8,0.4,16,0.4,24,0L288,525.1z"/>
	<path id="dr_x5F_cheek_x5F_L_x5F_CTL" style="fill:#97D0C9;" d="M424.9,423.6c-6,12.3-9.2,22.9-16.7,19.6s-8.7-15.8-2.7-28.1
		c6-12.3,16.9-19.5,24.4-16.3S430.9,411.3,424.9,423.6z"/>
	<path id="dr_x5F_cheek_x5F_R_x5F_CTL" style="fill:#97D0C9;" d="M86.1,423.6c6,12.3,9.2,22.9,16.7,19.6c7.5-3.3,8.7-15.8,2.7-28.1
		c-6-12.3-16.9-19.5-24.4-16.3S80.1,411.3,86.1,423.6z"/>
	<path id="jawUp_x5F_CTL" style="fill:#97D0C9;" d="M281.1,368.6c7.1,0,9.7-9,3.7-12.9c-8.8-5.8-19.7-7.4-29.6-7.4
		c-9.9,0-20.8,1.6-29.6,7.4c-6,3.9-3.3,12.9,3.7,12.9l26.1-0.6L281.1,368.6z"/>
	<path id="upTeeth_x5F_CTL" style="fill:#FFFFFF;" d="M214.1,432.2H189c-2.1,0-3.8-1.7-3.8-3.8v-23.6c0-2.3,1.9-4.1,4.1-4.1h24.5
		c2.3,0,4.1,1.9,4.1,4.1v23.6C217.9,430.4,216.2,432.2,214.1,432.2z M252.8,428.2v-12.9c0-3.5-2.8-6.3-6.3-6.3h-20.1
		c-3.5,0-6.3,2.8-6.3,6.3v12.9c0,2.2,1.8,4,4,4h24.7C251,432.2,252.8,430.4,252.8,428.2z M287.6,428.2v-12.9c0-3.5-2.8-6.3-6.3-6.3
		h-20.1c-3.5,0-6.3,2.8-6.3,6.3v12.9c0,2.2,1.8,4,4,4h24.7C285.8,432.2,287.6,430.4,287.6,428.2z M322.5,428.2v-18.9
		c0-4.7-3.8-8.6-8.6-8.6h-15.6c-4.7,0-8.6,3.8-8.6,8.6v18.9c0,2.2,1.8,4,4,4h24.7C320.7,432.2,322.5,430.4,322.5,428.2z"/>
	<path id="lowTeeth_x5F_CTL" style="fill:#FFFFFF;" d="M293.7,435.1h24.7c2.2,0,4,1.8,4,4V455c0,4.1-3.3,7.5-7.5,7.5h-17.8
		c-4.1,0-7.5-3.3-7.5-7.5v-15.9C289.7,436.9,291.5,435.1,293.7,435.1z M254.9,439.1v18.9c0,4.7,3.8,8.6,8.6,8.6H279
		c4.7,0,8.6-3.8,8.6-8.6v-18.9c0-2.2-1.8-4-4-4h-24.7C256.7,435.1,254.9,436.9,254.9,439.1z M220,439.1v18.9c0,4.7,3.8,8.6,8.6,8.6
		h15.6c4.7,0,8.6-3.8,8.6-8.6v-18.9c0-2.2-1.8-4-4-4H224C221.8,435.1,220,436.9,220,439.1z M185.2,439.1V455c0,4.1,3.3,7.5,7.5,7.5
		h17.8c4.1,0,7.5-3.3,7.5-7.5v-15.9c0-2.2-1.8-4-4-4h-24.7C187,435.1,185.2,436.9,185.2,439.1z"/>
	<path id="tongueRemote_x5F_CTL" style="fill:#EF4B4B;" d="M506.1,492.1h-25.2c-8.3,0-15.1-6.8-15.1-15.1v-55.5
		c0-0.9,0.7-1.6,1.6-1.6h52.2c0.9,0,1.6,0.7,1.6,1.6V477C521.2,485.3,514.5,492.1,506.1,492.1z"/>
	<path id="lipLow_x5F_CTL" style="fill:#EF4B4B;" d="M255.9,449c-22.3,0-40.7-2.1-55.6-5.2v21.1c15.9,3,34.4,4.8,55.6,4.8
		c19.9,0,37.3-1.4,52.4-3.9v-21C294,447.4,276.7,449,255.9,449z"/>
	<path id="lipCorner_x5F_R_x5F_CTL" style="fill:#EF4B4B;" d="M142.9,418.5c3.8-0.6,8.4-1.2,14.2-1.8v-20.8
		c-26,2.5-43.2,6.6-43.2,13.4c0,9.8,12.5,28.4,43.2,42.4v-23.2C150.9,425,146.3,421.6,142.9,418.5z"/>
	<path id="lipCorner_x5F_L_x5F_CTL" style="fill:#EF4B4B;" d="M397.9,409.3c0-6.9-18.6-11.1-46.4-13.5v20.8c0.3,0,0.7,0.1,1,0.1
		c7.3,0.7,12.9,1.4,17.2,2.1c-3.4,3.2-8.5,7.2-15.9,11.2c-0.7,0.4-1.5,0.8-2.3,1.2V454C385.7,439.8,397.9,419.6,397.9,409.3z"/>
	<path id="lipLowAngry_x5F_L_x5F_CTL" style="fill:#DD2C2C;" d="M308.3,444.8v21c17.2-2.8,31.5-7,43.2-11.8v-22.8
		C341.9,436.1,328,441.3,308.3,444.8z"/>
	<path id="lipUpAngry_x5F_R_x5F_CTL" style="fill:#DD2C2C;" d="M159.6,416.4c11.2-1,24.8-1.8,40.7-2.4v-20.7
		c-15.8,0.5-30.5,1.3-43.2,2.5v20.8C157.9,416.6,158.8,416.5,159.6,416.4z"/>
	<path id="lipUp_x5F_CTL" style="fill:#EF4B4B;" d="M222.6,413.6L222.6,413.6c1.6,0,6,1.6,8.9,2.7c6.4,2.4,14.4,5.4,23.6,5.4h0h0
		c9.3,0,17.6-2.9,24.3-5.2c3.8-1.3,8.2-2.8,10.4-2.8l0.1,0c6.4,0.1,12.6,0.3,18.4,0.5v-20.7c-5.9-0.2-11.9-0.3-18.1-0.4
		c-0.1,0-0.3,0-0.4,0c-11.3,0-23,8-34.7,8c0,0,0,0,0,0c-10.9,0-21.8-8.1-32.5-8.1c-0.1,0-0.2,0-0.3,0c-7.5,0.1-14.9,0.3-22,0.5v20.7
		C207.3,413.9,214.8,413.7,222.6,413.6z"/>
	<path id="lipLowAngry_x5F_R_x5F_CTL" style="fill:#DD2C2C;" d="M160.4,430.3c-1.2-0.6-2.3-1.2-3.3-1.8v23.2
		c11.7,5.3,26,10,43.2,13.2v-21.1C182.4,440.1,169.4,434.9,160.4,430.3z"/>
	<path id="lipUpAngry_x5F_L_x5F_CTL" style="fill:#DD2C2C;" d="M351.5,416.6v-20.8c-12.8-1.1-27.5-1.9-43.2-2.4v20.7
		C325.2,414.6,339.7,415.5,351.5,416.6z"/>
	<circle id="dr_x5F_lip_x5F_R_x5F_CTL" style="fill:#FFE164;" cx="121.4" cy="413.4" r="11.7"/>
	<circle id="dr_x5F_lipUp04_x5F_R_x5F_CTL" style="fill:#DD2C2C;" cx="146.3" cy="407.6" r="7"/>
	<circle id="dr_x5F_lipUp03_x5F_R_x5F_CTL" style="fill:#EF4B4B;" cx="167.9" cy="405.6" r="7"/>
	<circle id="dr_x5F_lipUp02_x5F_R_x5F_CTL" style="fill:#EF4B4B;" cx="189.7" cy="404.3" r="7"/>
	<circle id="dr_x5F_lipUp01_x5F_R_x5F_CTL" style="fill:#DD2C2C;" cx="211.1" cy="403.5" r="7"/>
	<circle id="dr_x5F_lipUp00_x5F_R_x5F_CTL" style="fill:#DD2C2C;" cx="232.7" cy="406" r="7"/>
	<circle id="dr_x5F_lipUp04_x5F_L_x5F_CTL" style="fill:#DD2C2C;" cx="362.3" cy="407.6" r="7"/>
	<circle id="dr_x5F_lipUp03_x5F_L_x5F_CTL" style="fill:#EF4B4B;" cx="340.7" cy="405.6" r="7"/>
	<circle id="dr_x5F_lipUp02_x5F_L_x5F_CTL" style="fill:#EF4B4B;" cx="318.9" cy="404.3" r="7"/>
	<circle id="dr_x5F_lipUp01_x5F_L_x5F_CTL" style="fill:#DD2C2C;" cx="297.5" cy="403.5" r="7"/>
	<circle id="dr_x5F_lipUp00_x5F_L_x5F_CTL" style="fill:#DD2C2C;" cx="275.9" cy="406" r="7"/>
	<circle id="dr_x5F_lipUp_x5F_M_x5F_CTL" style="fill:#DD2C2C;" cx="254.4" cy="411" r="7"/>
	<circle id="dr_x5F_lipLow04_x5F_R_x5F_CTL" style="fill:#DD2C2C;" cx="146.3" cy="434.2" r="7"/>
	<circle id="dr_x5F_lipLow03_x5F_R_x5F_CTL" style="fill:#EF4B4B;" cx="167.9" cy="445.1" r="7"/>
	<circle id="dr_x5F_lipLow02_x5F_R_x5F_CTL" style="fill:#EF4B4B;" cx="189.7" cy="451.7" r="7"/>
	<circle id="dr_x5F_lipLow01_x5F_R_x5F_CTL" style="fill:#DD2C2C;" cx="211.1" cy="456.9" r="7"/>
	<circle id="dr_x5F_lipLow00_x5F_R_x5F_CTL" style="fill:#DD2C2C;" cx="232.7" cy="458.6" r="7"/>
	<circle id="dr_x5F_lipLow04_x5F_L_x5F_CTL" style="fill:#DD2C2C;" cx="362.3" cy="437.5" r="7"/>
	<circle id="dr_x5F_lipLow03_x5F_L_x5F_CTL" style="fill:#EF4B4B;" cx="340.7" cy="447.5" r="7"/>
	<circle id="dr_x5F_lipLow02_x5F_L_x5F_CTL" style="fill:#EF4B4B;" cx="318.9" cy="453.7" r="7"/>
	<circle id="dr_x5F_lipLow01_x5F_L_x5F_CTL" style="fill:#DD2C2C;" cx="297.5" cy="456.9" r="7"/>
	<circle id="dr_x5F_lipLow00_x5F_L_x5F_CTL" style="fill:#DD2C2C;" cx="275.9" cy="458.6" r="7"/>
	<circle id="dr_x5F_lipLow_x5F_M_x5F_CTL" style="fill:#DD2C2C;" cx="254.4" cy="459.4" r="7"/>
	<circle id="dr_x5F_lip_x5F_L_x5F_CTL" style="fill:#FFE164;" cx="390.2" cy="413.4" r="11.7"/>
</g>
<g id="Nose">
	<path id="nose_x5F_CTL" style="fill:#55C3CD;" d="M290.6,292.6c0,18.9-15.4,22.5-34.4,22.5s-34.4-3.6-34.4-22.5
		s15.4-34.2,34.4-34.2S290.6,273.7,290.6,292.6z"/>
	<path id="nose_x5F_R_x5F_CTL" style="fill:#97D0C9;" d="M197.1,290.1c0,12,6,21.7,13.3,21.7s2-9.7,2-21.7c0-12,5.4-21.7-2-21.7
		S197.1,278.1,197.1,290.1z"/>
	<path id="nose_x5F_L_x5F_CTL" style="fill:#97D0C9;" d="M315.3,290.1c0,12-6,21.7-13.3,21.7c-7.4,0-2-9.7-2-21.7
		c0-12-5.4-21.7,2-21.7C309.3,268.4,315.3,278.1,315.3,290.1z"/>
	<path id="dr_x5F_cheekbone_x5F_R_x5F_CTL" style="fill:#97D0C9;" d="M58.1,307.6l0.3,1.8c1.2,7.6,7.4,11.2,15.1,12.8
		c29.9,6.1,58.8-1.8,53.1-16.1C116.8,281.4,56.3,276.8,58.1,307.6z"/>
	<path id="dr_x5F_cheekbone_x5F_L_x5F_CTL" style="fill:#97D0C9;" d="M450.4,307.6l-0.3,1.8c-1.2,7.6-7.4,11.2-15.1,12.8
		c-29.9,6.1-58.8-1.8-53.1-16.1C391.7,281.4,452.1,276.8,450.4,307.6z"/>
</g>
<g id="Eye">
	<path id="eyeTrans_x5F_R_x5F_CTL" style="fill:#E6F4F0;" d="M122.3,255.6c48.3,0,87.5-29.9,87.5-76.8c0-45.5-39.2-81.9-87.5-81.9
		s-85.9,34.3-86.9,81.9C34.5,225.7,74,255.6,122.3,255.6z M57.5,178.4c0-0.1,0-0.1,0-0.2c0.4-16.2,7.4-31.3,19.7-42.5
		c12.3-11.3,28.5-17.5,45.8-17.5c17.4,0,33.8,6.2,46.1,17.3c12.5,11.4,19.4,26.6,19.4,42.9c0,17.4-6.8,32-19.8,42.3
		c-11.6,9.3-27.9,14.3-45.8,14.3c-17.9,0-34.1-5.1-45.8-14.3C64.3,210.4,57.5,195.8,57.5,178.4z"/>
	<path id="eyeDefLow_x5F_R_x5F_CTL" style="fill:#FF7258;" d="M122.5,256.4c-7.1,0-14.1-0.7-19.8-2c-4-0.9-6.5-4.8-5.6-8.8
		c0.9-4,4.8-6.5,8.8-5.6c5.1,1.1,11.7,1.7,18.1,1.6c4.8-0.1,9.5-0.6,14.2-1.6c4-0.8,7.9,1.7,8.8,5.7c0.8,4-1.7,7.9-5.7,8.8
		c-5.6,1.2-11.3,1.8-17,1.9C123.7,256.4,123.1,256.4,122.5,256.4z"/>
	<path style="fill:#E6F4F0;" d="M202.6,38.5c-18.8-9.4-44.4-15.3-72-16.7c-5.5-0.3-11.1-0.4-16.6-0.3l0,0C85.8,22,61,27.6,44.2,37.1
		C32.4,43.9,28.3,59,35,70.9c4.5,7.9,12.9,12.6,22,12.5c0.3,0,0.6,0,0.9,0c3.8-0.2,7.6-1.3,10.9-3.2c7.2-4.1,23-8.7,45.8-9.1
		c4.4-0.1,8.9,0,13.5,0.2c20.7,1.1,39.8,5.3,52.5,11.6c3.6,1.8,7.5,2.7,11.5,2.6c0.3,0,0.6,0,0.9,0c8.9-0.5,16.8-5.7,20.8-13.7
		C219.8,59.4,214.9,44.6,202.6,38.5z"/>
	<path id="browExtremeUp_x5F_R_x5F_CTL" style="fill:#55C3CD;" d="M192.7,73.7c4.5-0.3,8.8-2.9,11-7.2c3.2-6.4,0.6-14.3-5.9-17.5
		c-17.5-8.7-41.6-14.2-67.8-15.6c-32.3-1.7-62.3,3.5-80.4,13.9c-6.3,3.6-8.4,11.5-4.8,17.8c2.5,4.4,7.3,6.8,12.1,6.6
		c2-0.1,3.9-0.7,5.7-1.7c10.8-6.2,33.8-12.1,66.2-10.5c22.4,1.1,43.3,5.8,57.5,12.9C188.3,73.4,190.6,73.8,192.7,73.7z"/>
	<circle id="browIn_x5F_R_x5F_CTL" style="fill:#EED453;" cx="192" cy="60.7" r="8.3"/>
	<circle id="browMid_x5F_R_x5F_CTL" style="fill:#EED453;" cx="103.5" cy="46.9" r="8.3"/>
	<circle id="browOut_x5F_R_x5F_CTL" style="fill:#EED453;" cx="56" cy="58.6" r="8.3"/>
	<path id="eyeDefUp_x5F_R_x5F_CTL" style="fill:#FF7258;" d="M104.3,113.4c-3.3,0-6.4-2.3-7.2-5.7c-1-4,1.5-8,5.4-9
		c5.7-1.4,12.5-2.1,21.5-2.1c5.7,0,11.4,0.5,17,1.5c4,0.8,6.7,4.6,5.9,8.7c-0.8,4-4.6,6.7-8.7,5.9c-4.7-0.9-9.4-1.3-14.2-1.3
		c-7.7,0-13.6,0.6-18.1,1.7C105.5,113.3,104.9,113.4,104.3,113.4z"/>
	<path id="eyeDefOut_x5F_R_x5F_CTL" style="fill:#FF7258;" d="M44.5,201.2c-3.3,0-6.3-2.2-7.2-5.6c-1.6-6.2-1.8-12.5-1.7-17.3
		c0-5.4,0.7-10.6,1.8-15.3c1-4,5-6.4,9-5.4c4,1,6.4,5,5.4,9c-0.9,3.7-1.3,7.6-1.4,11.9c0,5.8,0.3,9.8,1.3,13.5c1,4-1.4,8-5.3,9
		C45.7,201.1,45.1,201.2,44.5,201.2z"/>
	<path id="eyeDefIn_x5F_R_x5F_CTL" style="fill:#FF7258;" d="M201.4,200.6c-0.5,0-1-0.1-1.6-0.2c-4-0.9-6.6-4.8-5.7-8.8
		c0.9-4.2,1-8.9,1-12.9c0-4.1-0.2-8.9-1.3-13.3c-1-4,1.5-8,5.5-8.9c4-1,8,1.5,8.9,5.5c1.4,5.9,1.6,11.7,1.7,16.6
		c0,4.8-0.1,10.5-1.3,16.1C207.9,198.2,204.8,200.6,201.4,200.6z"/>
	<path id="eyelidOutLine_x5F_R_x5F_CTL" style="fill:#97D0C9;" d="M123.3,241.7c-19.9,0-38-5.7-51-16c-14.4-11.4-22-27.7-22-47.1
		c0-0.1,0-0.1,0-0.2c0.5-18,8.3-34.9,21.9-47.4c13.7-12.6,31.8-19.5,51.1-19.5c19.4,0,37.6,6.9,51.4,19.3
		c14,12.7,21.6,29.7,21.6,47.8c0,19.4-7.6,35.7-22,47.1C161.3,236,143.2,241.7,123.3,241.7z M65.1,178.7
		c0.1,35.5,31.4,48.2,58.2,48.2c26.8,0,58.2-12.6,58.2-48.3c0-28.8-26.1-52.3-58.2-52.3C91.5,126.3,66,149.3,65.1,178.7z"/>
	<path id="eyelidUp_x5F_R_x5F_CTL" style="fill:#EED453;" d="M108.7,126.9c-3.4,0-6.4-2.3-7.2-5.7c-0.9-4,1.6-8,5.5-8.9
		c5.5-1.3,11.7-1.4,16.6-1.4c0,0,0,0,0.1,0c4.5,0,8.9,0.4,13.3,1.3c4,0.8,6.7,4.7,5.9,8.7c-0.8,4-4.7,6.7-8.7,5.9
		c-3.5-0.7-7-1-10.5-1c-4.1,0-9.2,0.1-13.3,1.1C109.8,126.8,109.3,126.9,108.7,126.9z"/>
	<path id="eyelidLow_x5F_R_x5F_CTL" style="fill:#EED453;" d="M123.6,242c-4.8,0-11.1-0.2-16.6-1.4c-4-0.9-6.5-4.9-5.5-8.9
		c0.9-4,4.9-6.5,8.9-5.5c4,0.9,9.2,1.1,13.3,1.1c3.5,0,7.1-0.3,10.5-1c4-0.8,7.9,1.9,8.7,5.9c0.8,4-1.9,7.9-5.9,8.7
		C132.6,241.5,128.1,242,123.6,242C123.7,242,123.6,242,123.6,242z"/>
	<path id="eyeline_x5F_R_x5F_CTL" style="fill:#E6F4F0;" d="M166.4,179.9c0,2.1-0.1,4.2-0.4,6.3l0,0.1c0,0,0,0,0,0
		c-0.8,5.5-2.6,9.9-5.5,13.5c0,0,0,0.1-0.1,0.1c-2.9,3.5-6.7,6.2-11.8,8.2c0,0-0.1,0-0.1,0c-4.5,1.7-9.9,2.9-16.1,3.5
		c0,0-0.1,0-0.1,0c-3,0.3-6.3,0.4-9.8,0.5c-1.8,0-3.7,0-5.7,0c-0.7,0-1.4,0-2-0.1v0c-5.7-0.4-10.9-1.6-15.6-3.5
		c-5-2.1-9.2-5.1-12.4-8.8c-3.2-3.8-5.3-8.2-6.2-13.1c-0.3-1.7-0.5-3.5-0.5-5.4c0-2,0.1-4.1,0.4-6.2c0.2-1.2,0.4-2.4,0.7-3.5
		c0,0,0-0.1,0-0.1c1.3-4.9,3.7-9.5,6.9-13.7c0,0,0-0.1,0.1-0.1c3.3-4.1,7.3-7.6,12-10.4l0-0.1c4.6-2.7,9.6-4.6,14.9-5.5l0,0.1
		c4.6-0.8,9.3-0.9,13.9-0.3c0.7,0.1,1.4,0.2,2.1,0.3c0,0,0.1,0,0.1,0c5.6,1,10.7,2.7,15.2,5.2c4.7,2.6,8.8,6,12,10
		c0,0,0,0.1,0.1,0.1c3.2,4,5.5,8.7,6.8,13.7c0,0,0,0.1,0,0.1C166,173.8,166.4,176.8,166.4,179.9z"/>
	<path id="eye_x5F_R_x5F_CTL" style="fill:#353535;" d="M123.4,154.4c-12.6,0-22.9,10-22.9,22.6c0,12.6,10.2,22.9,22.9,22.9
		c12.6,0,22.9-10.2,22.9-22.9C146.3,164.4,136.1,154.4,123.4,154.4z M116.2,175.1c-3.3,0-5.9-2.6-5.9-5.9s2.6-5.9,5.9-5.9
		c3.3,0,5.9,2.6,5.9,5.9S119.4,175.1,116.2,175.1z"/>
	<path id="eye_x5F_CTL" style="fill:#F1F1F1;" d="M255.6,158c-9.8,0-17.7,7.9-17.7,17.7c0,9.8,7.9,17.7,17.7,17.7
		c9.8,0,17.7-7.9,17.7-17.7C273.3,165.9,265.4,158,255.6,158z M245.7,175.7c0-0.4,0-0.8,0.1-1.2c0.8,0.5,1.8,0.7,2.8,0.7
		c3.3,0,5.9-2.7,5.9-5.9c0-1.2-0.4-2.4-1-3.3c0.7-0.2,1.4-0.2,2.1-0.2c5.5,0,10,4.5,10,10c0,1.4-0.3,2.7-0.8,3.9
		c-0.5-0.3-1.2-0.5-1.9-0.5c-1.9,0-3.4,1.5-3.4,3.4c0,0.8,0.3,1.5,0.7,2.1c-1.4,0.7-2.9,1.1-4.6,1.1
		C250.1,185.6,245.7,181.2,245.7,175.7z"/>
	<path id="eyelidUp06_x5F_R_x5F_CTL" style="fill:#55C3CD;" d="M81.3,171.5l-14.9-3.9c1.9-7,5.2-13.6,9.8-19.5l12.1,9.5
		C85,161.8,82.6,166.5,81.3,171.5z"/>
	<path id="eyelidUp05_x5F_R_x5F_CTL" style="fill:#29A4AA;" d="M88.2,157.6l-12.1-9.5c4.5-5.7,9.9-10.4,16.3-14.2l7.9,13.3
		C95.6,149.9,91.5,153.4,88.2,157.6z"/>
	<path id="eyelidUp04_x5F_R_x5F_CTL" style="fill:#55C3CD;" d="M100.2,147.1L92.5,134c6.2-3.7,12.9-6.1,20-7.4l2.7,15
		C109.8,142.5,104.8,144.4,100.2,147.1z"/>
	<path id="eyelidUp03_x5F_R_x5F_CTL" style="fill:#29A4AA;" d="M131.2,141.7c-0.7-0.1-1.5-0.2-2.2-0.3c-4.6-0.6-9.3-0.5-13.9,0.3
		l-2.7-15.2c3.3-0.6,6.6-0.9,9.9-0.9c2.9,0,5.9,0.2,8.8,0.6c0.9,0.1,1.9,0.3,2.8,0.4L131.2,141.7z"/>
	<path id="eyelidUp02_x5F_R_x5F_CTL" style="fill:#55C3CD;" d="M146.5,147c-4.6-2.5-9.8-4.3-15.4-5.3l2.7-15.2
		c7.3,1.3,14.1,3.6,20.1,6.9L146.5,147z"/>
	<path id="eyelidUp01_x5F_R_x5F_CTL" style="fill:#29A4AA;" d="M158.5,157c-3.2-4-7.3-7.4-12.1-10l7.4-13.5
		c6.6,3.6,12.2,8.3,16.7,14L158.5,157z"/>
	<path id="eyelidUp00_x5F_R_x5F_CTL" style="fill:#55C3CD;" d="M165.3,170.8c-1.3-5.1-3.6-9.8-6.9-13.9l12.1-9.6
		c4.6,5.8,7.9,12.4,9.7,19.7L165.3,170.8z"/>
	<path id="eyelidIn_x5F_R_x5F_CTL" style="fill:#29A4AA;" d="M181.2,188.6l-15.2-2.3c0.3-2.1,0.5-4.3,0.5-6.4c0-3.2-0.4-6.3-1.2-9.3
		l14.9-3.8c1.1,4.2,1.6,8.5,1.7,12.9C181.9,182.7,181.6,185.7,181.2,188.6z"/>
	<path id="eyelidLow00_x5F_R_x5F_CTL" style="fill:#55C3CD;" d="M172.5,209.5l-12-9.6c2.9-3.6,4.7-8,5.5-13.6l0-0.1l15.2,2.3l0,0.1
		C180,196.8,177,203.8,172.5,209.5z"/>
	<path id="eyelidLow01_x5F_R_x5F_CTL" style="fill:#29A4AA;" d="M154.1,222.6l-5.6-14.4c5.2-2,9.1-4.8,12-8.4l12,9.6
		C168,215.2,161.8,219.6,154.1,222.6z"/>
	<path id="eyelidLow02_x5F_R_x5F_CTL" style="fill:#55C3CD;" d="M133.7,227l-1.5-15.3c6.3-0.6,11.8-1.8,16.3-3.5l5.6,14.4
		C148.3,224.8,141.6,226.3,133.7,227z"/>
	<path id="eyelidLow03_x5F_R_x5F_CTL" style="fill:#29A4AA;" d="M122.6,227.6C122.6,227.6,122.6,227.6,122.6,227.6
		c-2,0-4.1,0-6.2-0.1c-0.9,0-1.7-0.1-2.6-0.1l1-15.4c0.7,0,1.4,0.1,2,0.1c2,0.1,3.9,0.1,5.7,0.1c0,0,0,0,0,0c3.5,0,6.9-0.2,9.9-0.5
		l1.5,15.3C130.3,227.4,126.6,227.5,122.6,227.6z"/>
	<path id="eyelidLow04_x5F_R_x5F_CTL" style="fill:#55C3CD;" d="M113.9,227.4c-7.5-0.5-14.5-2.1-20.8-4.8l6-14.2
		c4.7,2,10,3.2,15.8,3.6L113.9,227.4z"/>
	<path id="eyelidLow05_x5F_R_x5F_CTL" style="fill:#29A4AA;" d="M93.1,222.7c-7.2-3.1-13.3-7.4-18-12.9l11.7-10.1
		c3.2,3.7,7.4,6.7,12.4,8.8L93.1,222.7z"/>
	<path id="eyelidLow06_x5F_R_x5F_CTL" style="fill:#55C3CD;" d="M75.2,209.8c-5-5.9-8.3-12.8-9.7-20.5l15.2-2.8
		c0.9,5,3,9.4,6.3,13.2L75.2,209.8z"/>
	<path id="eyelidOut_x5F_R_x5F_CTL" style="fill:#29A4AA;" d="M65.4,189.5c-0.5-2.6-0.7-5.4-0.8-8.1c0-2.8,0.2-5.7,0.6-8.6
		c0.3-1.8,0.6-3.5,1.1-5.3l14.9,3.9c-0.3,1.2-0.6,2.4-0.8,3.7c-0.3,2.1-0.5,4.2-0.5,6.2c0,1.9,0.2,3.8,0.5,5.5L65.4,189.5z"/>
	<path id="eyeTrans_x5F_L_x5F_CTL" style="fill:#E6F4F0;" d="M479.3,178.8c-1-47.6-38.6-81.9-86.9-81.9s-87.5,36.4-87.5,81.9
		c0,46.9,39.2,76.8,87.5,76.8S480.2,225.7,479.3,178.8z M437.4,220.6c-11.6,9.3-27.9,14.3-45.8,14.3c-17.9,0-34.1-5.1-45.8-14.3
		c-12.9-10.3-19.8-24.9-19.8-42.3c0-16.3,6.9-31.5,19.4-42.9c12.3-11.2,28.7-17.3,46.1-17.3c17.3,0,33.6,6.2,45.8,17.5
		c12.3,11.3,19.2,26.4,19.7,42.5c0,0.1,0,0.1,0,0.2C457.2,195.8,450.3,210.4,437.4,220.6z"/>
	<path id="eyeDefLow_x5F_L_x5F_CTL" style="fill:#FF7258;" d="M392.5,256.4c-0.6,0-1.2,0-1.8,0c-5.7-0.1-11.4-0.7-17-1.9
		c-4-0.8-6.6-4.8-5.7-8.8c0.8-4,4.8-6.6,8.8-5.7c4.6,1,9.4,1.5,14.2,1.6c6.5,0.1,13.1-0.5,18.1-1.6c4-0.9,8,1.6,8.8,5.6
		c0.9,4-1.6,8-5.6,8.8C406.5,255.7,399.6,256.4,392.5,256.4z"/>
	<path style="fill:#E6F4F0;" d="M301.2,71.7c4,7.9,11.9,13.2,20.8,13.7c0.3,0,0.6,0,0.9,0c4,0.1,7.9-0.8,11.5-2.6
		c12.7-6.3,31.8-10.5,52.5-11.6c4.6-0.2,9.1-0.3,13.5-0.2c22.7,0.4,38.6,5,45.8,9.1c3.3,1.9,7.1,3,10.9,3.2c0.3,0,0.6,0,0.9,0
		c9,0.2,17.5-4.6,22-12.5c6.8-11.8,2.6-27-9.2-33.8C454,27.6,429.2,22,400.9,21.5l0,0c-5.5-0.1-11,0-16.6,0.3
		c-27.6,1.4-53.2,7.4-72,16.7C300.1,44.6,295.1,59.4,301.2,71.7z"/>
	<path id="browExtremeUp_x5F_L_x5F_CTL" style="fill:#55C3CD;" d="M322.2,73.7c-4.5-0.3-8.8-2.9-11-7.2c-3.2-6.4-0.6-14.3,5.9-17.5
		c17.5-8.7,41.6-14.2,67.8-15.6c32.3-1.7,62.3,3.5,80.4,13.9c6.3,3.6,8.4,11.5,4.8,17.8c-2.5,4.4-7.3,6.8-12.1,6.6
		c-2-0.1-3.9-0.7-5.7-1.7c-10.8-6.2-33.8-12.1-66.2-10.5c-22.4,1.1-43.3,5.8-57.5,12.9C326.6,73.4,324.4,73.8,322.2,73.7z"/>
	<circle id="browIn_x5F_L_x5F_CTL" style="fill:#EED453;" cx="323" cy="60.7" r="8.3"/>
	<circle id="browMid_x5F_L_x5F_CTL" style="fill:#EED453;" cx="411.5" cy="46.9" r="8.3"/>
	<circle id="browOut_x5F_L_x5F_CTL" style="fill:#EED453;" cx="459" cy="58.6" r="8.3"/>
	<path id="eyeDefUp_x5F_L_x5F_CTL" style="fill:#FF7258;" d="M410.7,113.4c-0.6,0-1.2-0.1-1.8-0.2c-4.5-1.1-10.4-1.7-18.1-1.7
		c-4.8,0-9.5,0.4-14.2,1.3c-4,0.8-7.9-1.9-8.7-5.9c-0.8-4,1.9-7.9,5.9-8.7c5.6-1.1,11.3-1.6,17-1.5c9,0.1,15.8,0.7,21.5,2.1
		c4,1,6.4,5,5.4,9C417,111.1,414,113.4,410.7,113.4z"/>
	<path id="eyeDefOut_x5F_L_x5F_CTL" style="fill:#FF7258;" d="M470.5,201.2c-0.6,0-1.2-0.1-1.8-0.2c-4-1-6.4-5.1-5.3-9
		c0.9-3.6,1.3-7.6,1.3-13.5c0-4.4-0.5-8.3-1.4-11.9c-1-4,1.5-8,5.4-9c4-1,8,1.5,9,5.4c1.2,4.7,1.8,9.9,1.8,15.3
		c0,4.8-0.1,11-1.7,17.3C476.8,199,473.8,201.2,470.5,201.2z"/>
	<path id="eyeDefIn_x5F_L_x5F_CTL" style="fill:#FF7258;" d="M313.5,200.6c-3.4,0-6.5-2.4-7.2-5.9c-1.2-5.6-1.3-11.3-1.3-16.1
		c0-4.9,0.3-10.7,1.7-16.6c1-4,5-6.4,8.9-5.5c4,1,6.4,5,5.5,8.9c-1.1,4.4-1.2,9.2-1.3,13.3c0,4,0.1,8.7,1,12.9
		c0.9,4-1.7,7.9-5.7,8.8C314.6,200.5,314.1,200.6,313.5,200.6z"/>
	<path id="eyeline_x5F_L_x5F_CTL" style="fill:#E6F4F0;" d="M434.9,181.2c0,1.8-0.2,3.7-0.5,5.4c-0.9,4.9-3,9.4-6.2,13.1
		c-3.2,3.7-7.4,6.7-12.4,8.8c-4.7,2-9.9,3.1-15.6,3.5v0c-0.7,0.1-1.4,0.1-2,0.1c-2,0-3.9,0.1-5.7,0c0,0,0,0,0,0
		c-3.5,0-6.8-0.2-9.8-0.5c0,0-0.1,0-0.1,0c-6.2-0.6-11.7-1.8-16.1-3.5c0,0-0.1,0-0.1,0c-5.2-2-9-4.8-11.9-8.3
		c-2.8-3.6-4.6-8-5.5-13.5c0,0,0,0,0,0l0-0.1c-0.3-2.1-0.4-4.2-0.4-6.3c0-3.1,0.4-6.2,1.2-9.1c0,0,0-0.1,0-0.1
		c1.3-5,3.6-9.6,6.8-13.7c0,0,0-0.1,0.1-0.1c3.2-4,7.3-7.4,12-10c4.5-2.5,9.6-4.2,15.2-5.2c0,0,0.1,0,0.1,0c0.7-0.1,1.4-0.2,2.1-0.3
		c4.6-0.6,9.3-0.6,13.9,0.3l0-0.1c5.2,0.9,10.2,2.8,14.8,5.5l0,0.1c4.7,2.8,8.7,6.3,12,10.4c0,0,0,0.1,0.1,0.1
		c3.3,4.2,5.6,8.8,6.9,13.7c0,0,0,0.1,0,0.1c0.3,1.2,0.6,2.4,0.7,3.5C434.7,177.1,434.9,179.2,434.9,181.2z"/>
	<path id="eyelidOutLine_x5F_L_x5F_CTL" style="fill:#97D0C9;" d="M391.7,241.7c-19.9,0-38-5.7-51-16c-14.4-11.4-22-27.7-22-47.1
		c0-18.2,7.7-35.1,21.6-47.8c13.7-12.5,32-19.3,51.4-19.3c19.3,0,37.4,6.9,51.1,19.5c13.7,12.6,21.4,29.4,21.9,47.4
		c0,0.1,0,0.1,0,0.2c0,19.4-7.6,35.7-22,47.1C429.7,236,411.6,241.7,391.7,241.7z M391.7,126.3c-32.1,0-58.2,23.5-58.2,52.3
		c0,35.6,31.4,48.3,58.2,48.3c26.8,0,58.1-12.6,58.2-48.2C449,149.3,423.4,126.3,391.7,126.3z"/>
	<path id="eyelidUp_x5F_L_x5F_CTL" style="fill:#EED453;" d="M406.2,126.9c-0.6,0-1.1-0.1-1.7-0.2c-4-0.9-9.2-1.1-13.2-1.1
		c0,0,0,0-0.1,0c-3.5,0-7.1,0.3-10.5,1c-4,0.8-7.9-1.9-8.7-5.9c-0.8-4,1.9-7.9,5.9-8.7c4.4-0.8,8.8-1.3,13.3-1.3c0,0,0,0,0.1,0
		c4.8,0,11.1,0.2,16.6,1.4c4,0.9,6.5,4.9,5.5,8.9C412.6,124.6,409.6,126.9,406.2,126.9z"/>
	<path id="eyelidLow_x5F_L_x5F_CTL" style="fill:#EED453;" d="M391.3,242C391.3,242,391.3,242,391.3,242c-4.5,0-9-0.4-13.4-1.3
		c-4-0.8-6.7-4.7-5.9-8.7c0.8-4,4.7-6.7,8.7-5.9c3.5,0.7,7,1,10.5,1c0,0,0,0,0.1,0c4,0,9.2-0.1,13.2-1.1c4-0.9,8,1.6,8.9,5.5
		c0.9,4-1.6,8-5.5,8.9C402.4,241.8,396.2,242,391.3,242z"/>
	<path id="eye_x5F_L_x5F_CTL" style="fill:#353535;" d="M391.5,154.4c-12.6,0-22.9,10-22.9,22.6c0,12.6,10.2,22.9,22.9,22.9
		c12.6,0,22.9-10.2,22.9-22.9C414.4,164.4,404.2,154.4,391.5,154.4z M384.3,175.1c-3.3,0-5.9-2.6-5.9-5.9s2.6-5.9,5.9-5.9
		s5.9,2.6,5.9,5.9S387.5,175.1,384.3,175.1z"/>
	<path id="eyelidUp06_x5F_L_x5F_CTL" style="fill:#55C3CD;" d="M426.6,157.5l12.1-9.5c4.7,5.9,8,12.5,9.8,19.5l-14.9,3.9
		C432.4,166.5,430,161.8,426.6,157.5z"/>
	<path id="eyelidUp05_x5F_L_x5F_CTL" style="fill:#29A4AA;" d="M414.7,147.1l7.9-13.3c6.3,3.7,11.8,8.5,16.3,14.2l-12.1,9.5
		C423.4,153.4,419.4,149.9,414.7,147.1z"/>
	<path id="eyelidUp04_x5F_L_x5F_CTL" style="fill:#55C3CD;" d="M399.8,141.6l2.7-15c7.1,1.3,13.8,3.7,20,7.4l-7.8,13.1
		C410.1,144.4,405.1,142.5,399.8,141.6z"/>
	<path id="eyelidUp03_x5F_L_x5F_CTL" style="fill:#29A4AA;" d="M381.1,126.6c0.9-0.2,1.8-0.3,2.8-0.4c2.9-0.4,5.8-0.6,8.8-0.6
		c3.3,0,6.6,0.3,9.9,0.9l-2.7,15.2c-4.6-0.8-9.3-0.9-13.9-0.3c-0.7,0.1-1.5,0.2-2.2,0.3L381.1,126.6z"/>
	<path id="eyelidUp02_x5F_L_x5F_CTL" style="fill:#55C3CD;" d="M361.1,133.5c6-3.3,12.8-5.6,20.1-6.9l2.7,15.2
		c-5.7,1-10.9,2.8-15.4,5.3L361.1,133.5z"/>
	<path id="eyelidUp01_x5F_L_x5F_CTL" style="fill:#29A4AA;" d="M344.5,147.4c4.5-5.7,10.1-10.4,16.7-14l7.4,13.5
		c-4.8,2.6-8.8,6-12.1,10L344.5,147.4z"/>
	<path id="eyelidUp00_x5F_L_x5F_CTL" style="fill:#55C3CD;" d="M334.8,167c1.8-7.2,5.1-13.8,9.7-19.7l12.1,9.6
		c-3.3,4.1-5.6,8.8-6.9,13.9L334.8,167z"/>
	<path id="eyelidIn_x5F_L_x5F_CTL" style="fill:#29A4AA;" d="M333.1,179.8c0-4.4,0.6-8.7,1.7-12.9l14.9,3.8c-0.8,3-1.2,6.1-1.2,9.3
		c0,2.1,0.1,4.3,0.5,6.4l-15.2,2.3C333.3,185.7,333.1,182.7,333.1,179.8z"/>
	<path id="eyelidLow00_x5F_L_x5F_CTL" style="fill:#55C3CD;" d="M333.8,188.7l0-0.1l15.2-2.3l0,0.1c0.8,5.5,2.7,10,5.5,13.6l-12,9.6
		C337.9,203.8,335,196.8,333.8,188.7z"/>
	<path id="eyelidLow01_x5F_L_x5F_CTL" style="fill:#29A4AA;" d="M342.4,209.5l12-9.6c2.9,3.6,6.8,6.3,12,8.4l-5.6,14.4
		C353.2,219.6,347,215.2,342.4,209.5z"/>
	<path id="eyelidLow02_x5F_L_x5F_CTL" style="fill:#55C3CD;" d="M360.8,222.5l5.6-14.4c4.5,1.7,10,2.9,16.3,3.5l-1.5,15.3
		C373.4,226.3,366.7,224.8,360.8,222.5z"/>
	<path id="eyelidLow03_x5F_L_x5F_CTL" style="fill:#29A4AA;" d="M381.1,227l1.5-15.3c3.1,0.3,6.4,0.5,9.9,0.5c0,0,0,0,0,0
		c1.8,0,3.7,0,5.7-0.1c0.7,0,1.4,0,2-0.1l1,15.4c-0.9,0.1-1.7,0.1-2.6,0.1c-2.1,0.1-4.2,0.1-6.2,0.1c0,0,0,0,0,0
		C388.4,227.5,384.6,227.4,381.1,227z"/>
	<path id="eyelidLow04_x5F_L_x5F_CTL" style="fill:#55C3CD;" d="M400.1,212c5.8-0.4,11.1-1.6,15.8-3.6l6,14.2
		c-6.3,2.7-13.3,4.3-20.8,4.8L400.1,212z"/>
	<path id="eyelidLow05_x5F_L_x5F_CTL" style="fill:#29A4AA;" d="M415.8,208.5c5-2.1,9.2-5.1,12.4-8.8l11.7,10.1
		c-4.7,5.5-10.8,9.9-18,12.9L415.8,208.5z"/>
	<path id="eyelidLow06_x5F_L_x5F_CTL" style="fill:#55C3CD;" d="M428.1,199.8c3.2-3.8,5.4-8.2,6.3-13.2l15.2,2.8
		c-1.4,7.7-4.7,14.6-9.7,20.5L428.1,199.8z"/>
	<path id="eyelidOut_x5F_L_x5F_CTL" style="fill:#29A4AA;" d="M434.4,186.7c0.3-1.8,0.5-3.6,0.5-5.5c0-2-0.1-4.1-0.5-6.2
		c-0.2-1.2-0.4-2.5-0.8-3.7l14.9-3.9c0.5,1.7,0.8,3.5,1.1,5.3c0.4,2.9,0.7,5.8,0.6,8.6c0,2.8-0.3,5.5-0.8,8.1L434.4,186.7z"/>
</g>
</svg>
